<svg width="1200" height="700" viewBox="0 0 1200 700" fill="none" xmlns="http://www.w3.org/2000/svg">
  <rect width="1200" height="700" rx="36" fill="#F7FAFF"/>
  <rect x="148" y="100" width="380" height="42" rx="21" fill="#DBEAFE"/>
  <rect x="148" y="162" width="510" height="28" rx="14" fill="#BFDBFE"/>
  <circle cx="960" cy="130" r="68" fill="#BFDBFE"/>
  <circle cx="1014" cy="184" r="30" fill="#DBEAFE"/>
  <ellipse cx="630" cy="430" rx="248" ry="146" fill="#FFFFFF" stroke="#60A5FA" stroke-width="16"/>
  <ellipse cx="630" cy="430" rx="188" ry="104" fill="#EEF5FF"/>
  <path d="M538 430C576 388 654 382 720 420C674 478 588 482 538 430Z" fill="#38BDF8"/>
  <circle cx="548" cy="428" r="6" fill="#1E293B"/>
  <path d="M702 404L754 382L734 430L754 478L698 456" fill="#93C5FD"/>
  <circle cx="592" cy="486" r="28" fill="#86EFAC"/>
  <circle cx="654" cy="492" r="30" fill="#4ADE80"/>
  <circle cx="708" cy="482" r="26" fill="#22C55E"/>
</svg>
