<svg width="1200" height="700" viewBox="0 0 1200 700" fill="none" xmlns="http://www.w3.org/2000/svg">
  <rect width="1200" height="700" rx="36" fill="#F4F8FF"/>
  <rect x="150" y="100" width="420" height="42" rx="21" fill="#DBEAFE"/>
  <rect x="150" y="162" width="500" height="28" rx="14" fill="#BFDBFE"/>
  <circle cx="930" cy="130" r="70" fill="#BFDBFE"/>
  <circle cx="992" cy="178" r="32" fill="#DBEAFE"/>
  <circle cx="640" cy="420" r="190" fill="#FFFFFF" stroke="#3B82F6" stroke-width="16"/>
  <circle cx="640" cy="420" r="132" fill="#ECF4FF"/>
  <path d="M544 430C544 378 586 336 638 336H642C694 336 736 378 736 430V434H544V430Z" fill="#F59E0B"/>
  <path d="M540 442H744C732 498 690 540 642 540C594 540 552 498 540 442Z" fill="#86EFAC"/>
  <ellipse cx="668" cy="404" rx="38" ry="28" fill="#FCA5A5"/>
  <ellipse cx="598" cy="470" rx="36" ry="24" fill="#34D399"/>
  <rect x="824" y="308" width="24" height="180" rx="12" fill="#1D4ED8"/>
  <rect x="860" y="308" width="24" height="180" rx="12" fill="#60A5FA"/>
  <rect x="840" y="270" width="60" height="40" rx="18" fill="#93C5FD"/>
</svg>
